<svg width="522" height="142" viewBox="0 0 522 142" fill="none" xmlns="http://www.w3.org/2000/svg">
<path d="M128.808 117.744V28.784C133.672 28.3573 138.024 28.0587 141.864 27.888C145.789 27.632 149.416 27.4613 152.744 27.376C156.072 27.2053 159.187 27.12 162.088 27.12C170.109 27.12 176.552 27.888 181.416 29.424C186.28 30.8747 189.779 33.2213 191.912 36.464C194.131 39.6213 195.24 43.8027 195.24 49.008C195.24 53.872 194.131 58.0533 191.912 61.552C189.693 64.9653 186.408 67.568 182.056 69.36V69.616C187.688 70.9813 192.083 73.6693 195.24 77.68C198.397 81.6907 199.976 86.5973 199.976 92.4C199.976 97.1787 199.293 101.275 197.928 104.688C196.563 108.101 194.429 110.875 191.528 113.008C188.627 115.141 184.787 116.72 180.008 117.744C175.315 118.768 169.469 119.28 162.472 119.28C160.083 119.28 157.907 119.237 155.944 119.152C153.981 119.152 152.147 119.109 150.44 119.024C148.733 119.024 146.856 118.939 144.808 118.768C142.845 118.683 140.584 118.555 138.024 118.384C135.464 118.213 132.392 118 128.808 117.744ZM146.6 66.16H166.696C169.085 66.16 171.176 65.648 172.968 64.624C174.845 63.6 176.253 62.1493 177.192 60.272C178.216 58.3947 178.728 56.2613 178.728 53.872C178.728 50.9707 178.131 48.5813 176.936 46.704C175.827 44.8267 173.992 43.4613 171.432 42.608C168.957 41.7547 165.587 41.328 161.32 41.328C160.211 41.328 159.187 41.328 158.248 41.328C157.395 41.328 156.584 41.3707 155.816 41.456C155.048 41.456 154.237 41.4987 153.384 41.584C152.531 41.584 151.549 41.6267 150.44 41.712C149.416 41.7973 148.136 41.9253 146.6 42.096V66.16ZM146.6 104.304C148.392 104.389 150.013 104.517 151.464 104.688C152.915 104.773 154.195 104.859 155.304 104.944C156.499 104.944 157.608 104.987 158.632 105.072C159.656 105.072 160.637 105.072 161.576 105.072C166.696 105.072 170.707 104.645 173.608 103.792C176.595 102.853 178.685 101.403 179.88 99.44C181.16 97.4773 181.8 94.8747 181.8 91.632C181.8 87.536 180.563 84.464 178.088 82.416C175.613 80.2827 171.816 79.216 166.696 79.216H146.6V104.304ZM211.558 117.744V28.784C216.422 28.3573 220.774 28.0587 224.614 27.888C228.539 27.632 232.166 27.4613 235.494 27.376C238.822 27.2053 241.937 27.12 244.838 27.12C252.859 27.12 259.302 27.888 264.166 29.424C269.03 30.8747 272.529 33.2213 274.662 36.464C276.881 39.6213 277.99 43.8027 277.99 49.008C277.99 53.872 276.881 58.0533 274.662 61.552C272.443 64.9653 269.158 67.568 264.806 69.36V69.616C270.438 70.9813 274.833 73.6693 277.99 77.68C281.147 81.6907 282.726 86.5973 282.726 92.4C282.726 97.1787 282.043 101.275 280.678 104.688C279.313 108.101 277.179 110.875 274.278 113.008C271.377 115.141 267.537 116.72 262.758 117.744C258.065 118.768 252.219 119.28 245.222 119.28C242.833 119.28 240.657 119.237 238.694 119.152C236.731 119.152 234.897 119.109 233.19 119.024C231.483 119.024 229.606 118.939 227.558 118.768C225.595 118.683 223.334 118.555 220.774 118.384C218.214 118.213 215.142 118 211.558 117.744ZM229.35 66.16H249.446C251.835 66.16 253.926 65.648 255.718 64.624C257.595 63.6 259.003 62.1493 259.942 60.272C260.966 58.3947 261.478 56.2613 261.478 53.872C261.478 50.9707 260.881 48.5813 259.686 46.704C258.577 44.8267 256.742 43.4613 254.182 42.608C251.707 41.7547 248.337 41.328 244.07 41.328C242.961 41.328 241.937 41.328 240.998 41.328C240.145 41.328 239.334 41.3707 238.566 41.456C237.798 41.456 236.987 41.4987 236.134 41.584C235.281 41.584 234.299 41.6267 233.19 41.712C232.166 41.7973 230.886 41.9253 229.35 42.096V66.16ZM229.35 104.304C231.142 104.389 232.763 104.517 234.214 104.688C235.665 104.773 236.945 104.859 238.054 104.944C239.249 104.944 240.358 104.987 241.382 105.072C242.406 105.072 243.387 105.072 244.326 105.072C249.446 105.072 253.457 104.645 256.358 103.792C259.345 102.853 261.435 101.403 262.63 99.44C263.91 97.4773 264.55 94.8747 264.55 91.632C264.55 87.536 263.313 84.464 260.838 82.416C258.363 80.2827 254.566 79.216 249.446 79.216H229.35V104.304ZM294.308 118V28.144H310.948L349.988 90.736V28.4H365.604V118.256H349.092L310.052 56.56V118H294.308ZM381.183 118V28.4H398.719V70H436.863V28.4H454.399V118H436.863V85.744H398.719V118H381.183Z" fill="black"/>
<path d="M7 38C7 38 24.1951 22.25 56.2927 38C88.3902 53.75 101 38 101 38" stroke="black" stroke-width="13" stroke-linecap="round"/>
<path d="M7 60.1667C7 60.1667 24.1951 45.5417 56.2927 60.1667C88.3902 74.7917 101 60.1667 101 60.1667" stroke="black" stroke-width="13" stroke-linecap="round"/>
<path d="M7 81.8333C7 81.8333 24.1951 67.2083 56.2927 81.8333C88.3902 96.4583 101 81.8333 101 81.8333" stroke="black" stroke-width="13" stroke-linecap="round"/>
<path d="M7 103.5C7 103.5 24.1951 88.875 56.2927 103.5C88.3902 118.125 101 103.5 101 103.5" stroke="black" stroke-width="13" stroke-linecap="round"/>
</svg>
